<?xml version="1.0" encoding="UTF-8"?>
<svg id="Layer_1" data-name="Layer 1" xmlns="http://www.w3.org/2000/svg" xmlns:xlink="http://www.w3.org/1999/xlink" viewBox="0 0 976.37 744.74">
  <defs>
    <style>
      .cls-1 {
        fill: url(#linear-gradient-2);
        filter: url(#drop-shadow-1);
        stroke-width: 0px;
      }

      .cls-2 {
        fill: url(#linear-gradient);
      }

      .cls-2, .cls-3, .cls-4 {
        stroke: #fff;
        stroke-miterlimit: 10;
      }

      .cls-2, .cls-4 {
        stroke-width: .35px;
      }

      .cls-3 {
        fill: url(#linear-gradient-3);
        stroke-width: .92px;
      }

      .cls-4 {
        fill: url(#linear-gradient-4);
      }
    </style>
    <linearGradient id="linear-gradient" x1="226.77" y1="179.86" x2="436.12" y2="179.86" gradientUnits="userSpaceOnUse">
      <stop offset="0" stop-color="#6e73f7"/>
      <stop offset="1" stop-color="#927df0"/>
    </linearGradient>
    <linearGradient id="linear-gradient-2" x1="255.89" y1="409.2" x2="752.58" y2="409.2" gradientUnits="userSpaceOnUse">
      <stop offset="0" stop-color="#9ca0f2"/>
      <stop offset="1" stop-color="#d6d6f0"/>
    </linearGradient>
    <filter id="drop-shadow-1" filterUnits="userSpaceOnUse">
      <feOffset dx="0" dy="0"/>
      <feGaussianBlur result="blur" stdDeviation="16.18"/>
      <feFlood flood-color="#000" flood-opacity=".34"/>
      <feComposite in2="blur" operator="in"/>
      <feComposite in="SourceGraphic"/>
    </filter>
    <linearGradient id="linear-gradient-3" x1="226.77" y1="438.52" x2="761.56" y2="438.52" xlink:href="#linear-gradient-2"/>
    <linearGradient id="linear-gradient-4" x1="-188.39" y1="721.5" x2="1010.25" y2="644.17" gradientUnits="userSpaceOnUse">
      <stop offset="0" stop-color="#6e73f7"/>
      <stop offset="1" stop-color="#a5a9f2"/>
    </linearGradient>
  </defs>
  <g>
    <path class="cls-2" d="M369.52,263.1v18.12c0,28.23,10.45,55.13,28.64,76.42-18.1-14.75-41.19-23.6-66.34-23.6s-50.21,9.62-68.61,25.5c19.35-21.41,30.17-49.28,30.17-78.32v-19.09c0-31.32-13.22-60.87-35.51-82.87-19.21-18.96-31.09-45.29-31.09-74.41C226.77,46.89,273.84-.03,331.84.17c55.96.18,102.48,45.33,104.23,101.27.97,30.68-11.26,58.46-31.42,78.18-22.47,21.98-35.14,52.06-35.14,83.47Z"/>
    <path class="cls-1" d="M676.76,334.1c.2.04.41.08.61.11,6.5,1.23,12.76,3.35,18.68,6.26,24.13,11.81,42.19,36.32,44.38,63.25,2.73,33.5-19.88,67.57-51.99,77.51-4.6,1.43-9.11,2.15-13.48,2.29-25.8.9-47.9-17.96-71.45-28.39-34.86-15.44-72.05-25.64-109.94-30.03-47.6-5.48-95.82-1.92-143.6-5.5-15.81-1.18-31.55-3.14-47.3-5.11-16.83-2.1-48.73,3.03-46.7-18.98,1.78-19.07,15.33-36.29,31.32-45.98,10.82-6.57,27.58-13.27,43.2-15.46.44-.02.86-.02,1.29-.02,11.07,0,21.73,1.71,31.74,4.88,11.79,5.22,23.26,12.6,34.95,19.12,2.1,2.47,4.3,4.83,6.63,7.14l.6.6c2.43,2.45,4.95,4.76,7.54,6.98,21.31,18.22,48.22,28.66,76.42,28.66h6.96c30.44,0,59.5-12.02,81.32-33.06,23.23-12.32,44.5-29.33,70.23-34.19,4.02-.76,8.09-1.18,12.18-1.27,23.53-.53,38.36,12.8,55.79,27.3,11.11,9.24,22.53,18.88,28.91,31.85,4.98,10.12,6.51,21.57,7.2,32.82.81,13.09.37,27-6.51,38.16-7.09,11.51-20.15,18.31-33.42,20.88-13.27,2.57-26.95,1.44-40.42.31-14.73-1.24-29.47-2.49-44.2-3.73"/>
    <path class="cls-3" d="M656.87,542.19c-28.64,0-54.58-11.49-73.46-30.12-21.98-21.68-51.18-34.51-82.04-34.51h-11.67c-29.08,0-57.03,10.86-78.43,30.31-.02.02-.02.05-.05.05-1.71,1.53-3.35,3.14-4.97,4.79-17.2,17.59-40.55,29.13-66.58,31.16-2.64.21-5.25.32-7.86.32-3.17,0-6.29-.14-9.39-.42-.49-.02-.97-.09-1.46-.14-1.18-.12-2.36-.25-3.51-.44-44.71-6.17-81-41.29-89.02-85.42-.55-2.96-.95-5.99-1.23-9.04-.05-.51-.09-1.02-.14-1.53-.21-2.68-.3-5.36-.3-8.09s.12-5.22.32-7.84c2.01-26.03,13.57-49.38,31.16-66.58,1.71-1.66,3.35-3.4,4.95-5.16,18.1-15.63,41.59-25.17,67.32-25.47.44-.02.86-.02,1.29-.02,11.07,0,21.73,1.71,31.74,4.88,12.76,4.05,24.46,10.47,34.61,18.72.12.14.23.25.35.39,2.1,2.47,4.3,4.83,6.63,7.14l.6.6c2.43,2.45,4.95,4.76,7.54,6.98,21.31,18.22,48.22,28.66,76.42,28.66h6.96c30.44,0,59.5-12.02,81.32-33.06,1.16-1.09,2.27-2.2,3.38-3.35,19.79-20.62,47.97-33.15,79.04-32.11.97,0,1.92.05,2.89.12,11.51.69,22.56,3.28,32.78,7.44,37.1,15.07,63.78,50.99,65.42,92.81,2.33,59.73-45.4,108.9-104.6,108.9Z"/>
  </g>
  <path class="cls-4" d="M962.38,667.84c9.21-10.45,13.82-23.45,13.82-37.33v-19.37h-24.38v19.37c0,23.68-21.73,35.11-43.01,35.13h-38.28v-54.5h-24.38v133.44h24.38v-54.52h38.28c21.29.02,43.01,11.44,43.01,35.15v19.37h24.38v-19.37c0-13.9-4.61-26.88-13.82-37.33-3.37-3.83-7.21-7.17-11.4-10.01,4.19-2.86,8.03-6.2,11.4-10.01ZM782.08,611.13h-52.77c-27.47,0-49.93,22.46-49.93,49.93v33.57c0,27.45,22.46,49.93,49.93,49.93h52.77c27.47,0,49.93-22.48,49.93-49.93v-33.57c0-27.47-22.46-49.93-49.93-49.93ZM807.65,694.64c0,14.05-11.51,25.56-25.58,25.56h-52.77c-14.07,0-25.58-11.51-25.58-25.56v-33.57c0-14.07,11.51-25.58,25.58-25.58h52.77c14.07,0,25.58,11.51,25.58,25.58v33.57ZM640.84,611.13v102.69c0,3.51-2.86,6.37-6.37,6.37h-2.73c-1.51,0-3.01-.38-4.33-1.09-2.38-1.28-3.51-3.2-4.75-5.51-.48-.88-.93-1.77-1.35-2.67-.42-.88-.84-1.79-1.24-2.69-.38-.86-.78-1.75-1.18-2.63l-29.55-65.52c-.38-.84-.76-1.7-1.14-2.54-.46-1.07-.97-2.15-1.47-3.22-.61-1.26-1.24-2.55-1.91-3.79-3.6-6.69-7.85-11.72-14.6-15.38-4.9-2.65-10.37-4.02-15.92-4.02h-7.45c-14.37,0-26.04,11.67-26.04,26.04v107.4h24.38v-102.69c0-3.51,2.86-6.39,6.37-6.39h2.73c1.51,0,2.99.38,4.33,1.09,2.38,1.28,3.49,3.2,4.75,5.51.46.88.9,1.77,1.35,2.67.42.9.82,1.79,1.22,2.69.4.88.78,1.77,1.18,2.63l29.55,65.54c.38.84.76,1.68,1.14,2.52.48,1.07.97,2.15,1.47,3.22.61,1.28,1.24,2.55,1.91,3.79,3.6,6.69,7.85,11.74,14.62,15.38,4.88,2.65,10.35,4.04,15.92,4.04h7.42c14.39,0,26.04-11.67,26.04-26.06v-107.38h-24.36ZM465.18,640.49c-7.19-18.09-23.85-29.36-43.31-29.36s-36.11,11.27-43.31,29.36l-41.46,104.07h26.23l37.86-95.07c3.51-8.79,11.19-14.01,20.68-14.01s17.16,5.22,20.68,14.03l37.86,95.05h26.23l-41.46-104.07ZM298.58,611.13v102.69c0,3.51-2.86,6.37-6.37,6.37h-2.73c-1.51,0-3.01-.38-4.33-1.09-2.38-1.28-3.51-3.2-4.75-5.51-.48-.88-.93-1.77-1.35-2.67-.42-.88-.84-1.79-1.24-2.69-.38-.86-.78-1.75-1.18-2.63l-29.55-65.52c-.38-.84-.76-1.7-1.14-2.54-.46-1.07-.97-2.15-1.47-3.22-.61-1.26-1.24-2.55-1.91-3.79-3.6-6.69-7.85-11.72-14.6-15.38-4.9-2.65-10.37-4.02-15.92-4.02h-7.45c-14.37,0-26.04,11.67-26.04,26.04v107.4h24.38v-102.69c0-3.51,2.86-6.39,6.37-6.39h2.73c1.51,0,2.99.38,4.33,1.09,2.38,1.28,3.49,3.2,4.75,5.51.46.88.9,1.77,1.35,2.67.42.9.82,1.79,1.22,2.69.4.88.78,1.77,1.18,2.63l29.55,65.54c.38.84.76,1.68,1.14,2.52.48,1.07.97,2.15,1.47,3.22.61,1.28,1.24,2.55,1.91,3.79,3.6,6.69,7.85,11.74,14.62,15.38,4.88,2.65,10.35,4.04,15.92,4.04h7.42c14.39,0,26.04-11.67,26.04-26.06v-107.38h-24.36ZM139.84,611.13v133.44h24.38v-133.44h-24.38ZM50.11,720.19c-14.05,0-25.56-11.51-25.56-25.56v-83.5H.17v83.5c0,27.45,22.48,49.93,49.93,49.93h75.47v-24.38H50.11Z"/>
</svg>