<?xml version="1.0" encoding="UTF-8"?>
<svg id="Layer_1" data-name="Layer 1" xmlns="http://www.w3.org/2000/svg" xmlns:xlink="http://www.w3.org/1999/xlink" viewBox="0 0 984.19 134.86">
  <defs>
    <style>
      .cls-1 {
        fill: url(#linear-gradient);
        stroke: #fff;
        stroke-miterlimit: 10;
        stroke-width: .35px;
      }
    </style>
    <linearGradient id="linear-gradient" x1="-189.9" y1="111.43" x2="1018.35" y2="33.48" gradientUnits="userSpaceOnUse">
      <stop offset="0" stop-color="#6e73f7"/>
      <stop offset="1" stop-color="#a5a9f2"/>
    </linearGradient>
  </defs>
  <path class="cls-1" d="M970.08,57.34c9.29-10.54,13.93-23.64,13.93-37.63V.17h-24.57v19.53c0,23.87-21.9,35.39-43.36,35.41h-38.59V.17h-24.57v134.51h24.57v-54.96h38.59c21.46.02,43.36,11.53,43.36,35.43v19.53h24.57v-19.53c0-14.01-4.64-27.1-13.93-37.63-3.39-3.86-7.27-7.23-11.49-10.09,4.22-2.88,8.1-6.25,11.49-10.09ZM788.34.17h-53.2c-27.69,0-50.33,22.64-50.33,50.33v33.84c0,27.67,22.64,50.33,50.33,50.33h53.2c27.69,0,50.33-22.67,50.33-50.33v-33.84c0-27.69-22.64-50.33-50.33-50.33ZM814.12,84.35c0,14.16-11.6,25.76-25.78,25.76h-53.2c-14.18,0-25.78-11.6-25.78-25.76v-33.84c0-14.18,11.6-25.78,25.78-25.78h53.2c14.18,0,25.78,11.6,25.78,25.78v33.84ZM645.97.17v103.51c0,3.54-2.88,6.42-6.42,6.42h-2.76c-1.53,0-3.03-.38-4.37-1.1-2.4-1.29-3.54-3.22-4.79-5.55-.49-.89-.93-1.78-1.36-2.69-.42-.89-.85-1.8-1.25-2.71-.38-.87-.78-1.76-1.19-2.65l-29.79-66.04c-.38-.85-.76-1.72-1.14-2.57-.47-1.08-.98-2.16-1.48-3.24-.61-1.27-1.25-2.57-1.93-3.82-3.63-6.74-7.91-11.81-14.71-15.5-4.94-2.67-10.45-4.05-16.05-4.05h-7.51c-14.48,0-26.25,11.77-26.25,26.25v108.26h24.57V31.17c0-3.54,2.88-6.45,6.42-6.45h2.76c1.53,0,3.01.38,4.37,1.1,2.4,1.29,3.52,3.22,4.79,5.55.47.89.91,1.78,1.36,2.69.42.91.83,1.8,1.23,2.71.4.89.78,1.78,1.19,2.65l29.79,66.07c.38.85.76,1.7,1.14,2.54.49,1.08.98,2.16,1.48,3.24.61,1.29,1.25,2.57,1.93,3.82,3.63,6.74,7.91,11.83,14.74,15.5,4.92,2.67,10.43,4.07,16.05,4.07h7.48c14.5,0,26.25-11.77,26.25-26.27V.17h-24.55ZM468.91,29.77C461.66,11.54,444.87.17,425.25.17s-36.4,11.36-43.66,29.6l-41.79,104.91h26.44l38.16-95.83c3.54-8.86,11.28-14.12,20.84-14.12s17.3,5.26,20.84,14.14l38.16,95.81h26.44l-41.79-104.91ZM300.97.17v103.51c0,3.54-2.88,6.42-6.42,6.42h-2.76c-1.53,0-3.03-.38-4.37-1.1-2.4-1.29-3.54-3.22-4.79-5.55-.49-.89-.93-1.78-1.36-2.69-.42-.89-.85-1.8-1.25-2.71-.38-.87-.78-1.76-1.19-2.65l-29.79-66.04c-.38-.85-.76-1.72-1.14-2.57-.47-1.08-.98-2.16-1.48-3.24-.61-1.27-1.25-2.57-1.93-3.82-3.63-6.74-7.91-11.81-14.71-15.5-4.94-2.67-10.45-4.05-16.05-4.05h-7.51c-14.48,0-26.25,11.77-26.25,26.25v108.26h24.57V31.17c0-3.54,2.88-6.45,6.42-6.45h2.76c1.53,0,3.01.38,4.37,1.1,2.4,1.29,3.52,3.22,4.79,5.55.47.89.91,1.78,1.36,2.69.42.91.83,1.8,1.23,2.71.4.89.78,1.78,1.19,2.65l29.79,66.07c.38.85.76,1.7,1.14,2.54.49,1.08.98,2.16,1.48,3.24.61,1.29,1.25,2.57,1.93,3.82,3.63,6.74,7.91,11.83,14.74,15.5,4.92,2.67,10.43,4.07,16.05,4.07h7.48c14.5,0,26.25-11.77,26.25-26.27V.17h-24.55ZM140.96.17v134.51h24.57V.17h-24.57ZM50.51,110.11c-14.16,0-25.76-11.6-25.76-25.76V.17H.17v84.17c0,27.67,22.67,50.33,50.33,50.33h76.07v-24.57H50.51Z"/>
</svg>